<svg width="126" height="32" viewBox="0 0 126 32" fill="none" xmlns="http://www.w3.org/2000/svg">
<path d="M46.7941 15.6069C46.7941 13.8316 47.1904 12.4113 47.9832 11.3548C48.7759 10.2982 49.8616 9.76997 51.2403 9.76997C52.3433 9.76997 53.2566 10.1857 53.9804 11.017V5.20605H57.0222V21.4006H54.282L54.1355 20.1882C53.3773 21.1408 52.4122 21.6085 51.2231 21.6085C49.8875 21.6085 48.819 21.0802 48.009 20.0236C47.1991 18.9671 46.7941 17.4949 46.7941 15.6069ZM49.8272 15.8321C49.8272 16.906 50.0081 17.72 50.3873 18.2916C50.7578 18.8632 51.292 19.149 51.9986 19.149C52.9378 19.149 53.5927 18.7506 53.9804 17.9539V13.4419C53.6013 12.6452 52.9464 12.2468 52.0158 12.2468C50.5596 12.2554 49.8272 13.4506 49.8272 15.8321Z" fill="white"/>
<path d="M59.0309 7.03331C59.0309 6.57432 59.186 6.20194 59.4876 5.90749C59.7892 5.61304 60.2028 5.46582 60.7284 5.46582C61.2454 5.46582 61.659 5.61304 61.9692 5.90749C62.2794 6.20194 62.4345 6.58298 62.4345 7.03331C62.4345 7.50096 62.2794 7.87335 61.9692 8.1678C61.659 8.46225 61.2454 8.60947 60.737 8.60947C60.2286 8.60947 59.815 8.46225 59.5048 8.1678C59.186 7.88201 59.0309 7.50096 59.0309 7.03331ZM62.2535 21.4006H59.2118V9.98644H62.2535V21.4006Z" fill="white"/>
<path d="M70.5758 18.2486C70.5758 17.8762 70.3949 17.5818 70.0243 17.3653C69.6538 17.1488 69.0679 16.9582 68.2579 16.7937C65.5609 16.2221 64.208 15.0703 64.208 13.3383C64.208 12.325 64.6216 11.485 65.4575 10.8008C66.2933 10.1253 67.3876 9.7876 68.7318 9.7876C70.1708 9.7876 71.3255 10.1253 72.1872 10.8095C73.0488 11.4937 73.4797 12.377 73.4797 13.4682H70.4466C70.4466 13.0352 70.3087 12.6714 70.0243 12.3857C69.7486 12.0999 69.3092 11.9613 68.7146 11.9613C68.2062 11.9613 67.8098 12.0739 67.5255 12.3077C67.2498 12.5415 67.1033 12.836 67.1033 13.1911C67.1033 13.5288 67.2584 13.7973 67.5772 14.0051C67.896 14.213 68.4303 14.3948 69.1885 14.542C69.9468 14.6893 70.5758 14.8625 71.1014 15.053C72.7042 15.6419 73.5055 16.6638 73.5055 18.1187C73.5055 19.1579 73.0574 19.998 72.1699 20.6475C71.2824 21.2883 70.1364 21.6088 68.7318 21.6088C67.784 21.6088 66.9396 21.4356 66.1985 21.0978C65.4575 20.7601 64.8802 20.2924 64.4665 19.6949C64.0443 19.0973 63.8375 18.4564 63.8375 17.7723H66.7241C66.75 18.3092 66.9482 18.7249 67.3187 19.0194C67.6892 19.3051 68.189 19.4524 68.8094 19.4524C69.3867 19.4524 69.8262 19.3398 70.1278 19.1233C70.4207 18.8895 70.5758 18.6037 70.5758 18.2486Z" fill="white"/>
<path d="M79.8735 19.1486C80.4335 19.1486 80.8902 18.9928 81.2349 18.681C81.5882 18.3692 81.7691 17.9622 81.7778 17.4512H84.6213C84.6127 18.222 84.4059 18.9321 83.9923 19.573C83.5787 20.2138 83.0186 20.7161 82.2948 21.0712C81.5796 21.4263 80.7868 21.5995 79.9165 21.5995C78.2966 21.5995 77.0127 21.0799 76.0735 20.0406C75.1342 19.0014 74.6689 17.5725 74.6689 15.7452V15.5547C74.6689 13.7966 75.1343 12.3937 76.0649 11.3458C76.9955 10.2979 78.2707 9.77832 79.8907 9.77832C81.3125 9.77832 82.4499 10.1853 83.3029 10.9994C84.156 11.8135 84.5954 12.896 84.6127 14.2383H81.7691C81.7519 13.6408 81.571 13.1645 81.2263 12.7921C80.873 12.4197 80.4163 12.2378 79.839 12.2378C79.1324 12.2378 78.5982 12.4976 78.2363 13.0172C77.8744 13.5368 77.6934 14.3769 77.6934 15.5373V15.8578C77.6934 17.0356 77.8744 17.8756 78.2277 18.3952C78.5982 18.8975 79.141 19.1486 79.8735 19.1486Z" fill="white"/>
<path d="M85.5614 15.5899C85.5614 14.4554 85.7768 13.4509 86.2077 12.5675C86.6385 11.6842 87.2675 11 88.0775 10.5151C88.8961 10.0301 89.8353 9.7876 90.9124 9.7876C92.4462 9.7876 93.6956 10.2552 94.6607 11.1992C95.6258 12.1432 96.1686 13.4162 96.2807 15.0357L96.2979 15.8151C96.2979 17.5644 95.8154 18.9674 94.8417 20.0239C93.868 21.0805 92.5668 21.6088 90.9297 21.6088C89.2925 21.6088 87.9913 21.0805 87.009 20.0239C86.0353 18.9674 85.5442 17.5385 85.5442 15.7198V15.5899H85.5614ZM88.5945 15.8064C88.5945 16.889 88.8013 17.7203 89.2063 18.2919C89.6113 18.8635 90.1886 19.1493 90.9469 19.1493C91.6793 19.1493 92.2566 18.8635 92.6702 18.3006C93.0838 17.7376 93.2906 16.8283 93.2906 15.5813C93.2906 14.5161 93.0838 13.6933 92.6702 13.1131C92.2566 12.5329 91.6793 12.2384 90.9297 12.2384C90.1886 12.2384 89.6113 12.5329 89.2063 13.1131C88.7927 13.6847 88.5945 14.5853 88.5945 15.8064Z" fill="white"/>
<path d="M101.95 17.6776L104.061 9.9873H107.232L103.406 21.3928H100.502L96.6677 9.9873H99.8386L101.95 17.6776Z" fill="white"/>
<path d="M113.324 21.608C111.661 21.608 110.308 21.0971 109.257 20.0665C108.214 19.0446 107.688 17.6763 107.688 15.9616V15.6671C107.688 14.524 107.912 13.4934 108.352 12.5928C108.791 11.6921 109.42 10.9906 110.222 10.5056C111.032 10.0207 111.954 9.76953 112.988 9.76953C114.539 9.76953 115.762 10.2632 116.65 11.2418C117.537 12.229 117.985 13.6233 117.985 15.4246V16.6804H110.756C110.851 17.4251 111.152 18.0227 111.643 18.473C112.135 18.9234 112.764 19.1485 113.513 19.1485C114.685 19.1485 115.59 18.7242 116.253 17.8755L117.744 19.5555C117.287 20.2051 116.676 20.7074 115.9 21.0711C115.125 21.4261 114.263 21.608 113.324 21.608ZM112.979 12.2377C112.376 12.2377 111.893 12.4455 111.514 12.8526C111.144 13.2596 110.902 13.8485 110.799 14.6106H115.013V14.3681C114.995 13.6926 114.814 13.1643 114.47 12.7919C114.116 12.4195 113.617 12.2377 112.979 12.2377Z" fill="white"/>
<path d="M125.767 12.844C125.354 12.7921 124.992 12.7574 124.673 12.7574C123.527 12.7574 122.777 13.1471 122.416 13.9266V21.3916H119.382V9.98616H122.243L122.329 11.3458C122.941 10.2979 123.777 9.77832 124.854 9.77832C125.19 9.77832 125.5 9.82162 125.802 9.91688L125.767 12.844Z" fill="white"/>
<path opacity="0.3" d="M26.7037 26.8382C20.6365 32.9489 10.8 32.9878 4.68122 26.9549C9.00568 31.1974 15.9377 31.1585 20.2235 26.8511C24.535 22.5049 24.535 15.46 20.2106 11.1268C15.8861 6.78049 8.8766 6.79347 4.56504 11.1397C0.29222 15.4341 0.266402 22.3881 4.47468 26.7344C-1.52793 20.5847 -1.4892 10.7246 4.57795 4.61385C10.6838 -1.53579 20.5849 -1.53579 26.7037 4.60088C32.8096 10.7375 32.8096 20.7015 26.7037 26.8382Z" fill="#4863F7"/>
<path opacity="0.6" d="M20.2228 26.838C15.9371 31.1453 9.00502 31.1842 4.68056 26.9418C4.64183 26.9028 4.61602 26.8769 4.57729 26.838L4.56438 26.825C7.10742 29.3679 11.2124 29.3679 13.7555 26.825C16.2856 24.2691 16.2856 20.1434 13.7555 17.5876C11.2124 15.0577 7.09451 15.0577 4.56438 17.6005C2.04716 20.1305 2.03425 24.2172 4.51275 26.7731C4.51275 26.7731 4.51275 26.7731 4.49984 26.7601C4.49984 26.7601 4.49984 26.7601 4.48693 26.7471L4.47402 26.7342L4.46111 26.7212C0.265738 22.3879 0.291556 15.4339 4.57729 11.1266C8.90175 6.78029 15.8983 6.78029 20.2228 11.1136C24.5473 15.4598 24.5473 22.5047 20.2228 26.838Z" fill="#4863F7"/>
<path opacity="0.4" d="M4.56619 26.8393C4.53983 26.813 4.51348 26.7866 4.48712 26.7603L4.5003 26.7734C4.52665 26.7998 4.55301 26.8261 4.56619 26.8393Z" fill="#4863F7"/>
<path d="M13.7569 26.8384C11.2267 29.3943 7.1088 29.3943 4.56576 26.8384C4.53995 26.8125 4.52704 26.7995 4.50122 26.7735C2.02272 24.2177 2.03563 20.1309 4.55286 17.601C7.08299 15.0451 11.2009 15.0451 13.7439 17.601C16.287 20.1439 16.287 24.2825 13.7569 26.8384Z" fill="#4863F7"/>
</svg>
